<svg width="512" height="512" viewBox="0 0 512 512" fill="none" xmlns="http://www.w3.org/2000/svg">
  <defs>
    <linearGradient id="bodyGradient" x1="0%" y1="0%" x2="0%" y2="100%">
      <stop offset="0%" stop-color="#ffffff"/>
      <stop offset="50%" stop-color="#e8e8e8"/>
      <stop offset="100%" stop-color="#c0c0c0"/>
    </linearGradient>
    
    <linearGradient id="innerShadow" x1="0%" y1="0%" x2="0%" y2="100%">
      <stop offset="0%" stop-color="#a0a0a0"/>
      <stop offset="100%" stop-color="#d0d0d0"/>
    </linearGradient>
    
    <linearGradient id="screenGradient" x1="0%" y1="0%" x2="0%" y2="100%">
      <stop offset="0%" stop-color="#2a2a2a"/>
      <stop offset="100%" stop-color="#1a1a1a"/>
    </linearGradient>
    
    <filter id="glow" x="-50%" y="-50%" width="200%" height="200%">
      <feGaussianBlur stdDeviation="8" result="coloredBlur"/>
      <feMerge>
        <feMergeNode in="coloredBlur"/>
        <feMergeNode in="SourceGraphic"/>
      </feMerge>
    </filter>
    
    <filter id="dropShadow" x="-20%" y="-20%" width="140%" height="140%">
      <feDropShadow dx="0" dy="8" stdDeviation="12" flood-color="#000000" flood-opacity="0.3"/>
    </filter>
  </defs>
  
  <!-- Main body -->
  <rect x="56" y="56" width="400" height="400" rx="80" ry="80" fill="url(#bodyGradient)" filter="url(#dropShadow)"/>
  <rect x="72" y="72" width="368" height="368" rx="68" ry="68" fill="url(#innerShadow)"/>
  <rect x="96" y="140" width="320" height="180" rx="40" ry="40" fill="url(#screenGradient)"/>
  
  <!-- Ghost container with floating animation -->
  <g filter="url(#glow)">
    <g>
      <!-- Floating animation -->
      <animateTransform 
        attributeName="transform" 
        type="translate" 
        values="0,0; 0,-6; 0,0; 0,4; 0,0" 
        dur="3s" 
        repeatCount="indefinite"
        calcMode="spline"
        keySplines="0.4 0 0.6 1; 0.4 0 0.6 1; 0.4 0 0.6 1; 0.4 0 0.6 1"
      />
      
      <!-- Ghost body -->
      <path d="M256 180 
               C220 180 192 208 192 244 
               L192 290 
               C192 294 196 296 199 294 
               L212 284 
               C216 281 222 281 226 284 
               L240 294 
               C244 297 250 297 254 294 
               L268 284 
               C272 281 278 281 282 284 
               L296 294 
               C300 297 306 297 310 294 
               L324 284 
               C328 281 334 281 338 284 
               L351 294 
               C354 296 358 294 358 290 
               L358 244 
               C358 208 330 180 294 180 
               L256 180 Z" 
            fill="#f97316">
        <!-- Pulsing glow -->
        <animate 
          attributeName="opacity" 
          values="0.85;1;0.85" 
          dur="2s" 
          repeatCount="indefinite"
        />
      </path>
      
      <!-- Left eye white -->
      <ellipse cx="232" cy="230" rx="12" ry="14" fill="white"/>
      
      <!-- Right eye white -->
      <ellipse cx="280" cy="230" rx="12" ry="14" fill="white"/>
      
      <!-- Left pupil with look around animation -->
      <ellipse cx="234" cy="232" rx="6" ry="7" fill="#1a1a1a">
        <animate 
          attributeName="cx" 
          values="234;230;234;238;234" 
          dur="4s" 
          repeatCount="indefinite"
        />
        <animate 
          attributeName="cy" 
          values="232;230;232;234;232" 
          dur="4s" 
          repeatCount="indefinite"
        />
      </ellipse>
      
      <!-- Right pupil with look around animation -->
      <ellipse cx="282" cy="232" rx="6" ry="7" fill="#1a1a1a">
        <animate 
          attributeName="cx" 
          values="282;278;282;286;282" 
          dur="4s" 
          repeatCount="indefinite"
        />
        <animate 
          attributeName="cy" 
          values="232;230;232;234;232" 
          dur="4s" 
          repeatCount="indefinite"
        />
      </ellipse>
      
      <!-- Blink - left eyelid -->
      <ellipse cx="232" cy="230" rx="14" ry="0" fill="#f97316">
        <animate 
          attributeName="ry" 
          values="0;0;0;0;0;0;0;0;16;0;0;0;0;0;0;0;0;0;0;0" 
          dur="5s" 
          repeatCount="indefinite"
        />
      </ellipse>
      
      <!-- Blink - right eyelid -->
      <ellipse cx="280" cy="230" rx="14" ry="0" fill="#f97316">
        <animate 
          attributeName="ry" 
          values="0;0;0;0;0;0;0;0;16;0;0;0;0;0;0;0;0;0;0;0" 
          dur="5s" 
          repeatCount="indefinite"
        />
      </ellipse>
    </g>
  </g>
  
  <!-- Subtle highlight on body -->
  <ellipse cx="180" cy="120" rx="60" ry="20" fill="white" opacity="0.4"/>
</svg>
